<?xml version="1.0" encoding="UTF-8" standalone="no"?>
<svg width="200" height="300" viewBox="0 0 200 300" fill="none" xmlns="http://www.w3.org/2000/svg">
  <path d="M100 0C44.772 0 0 44.772 0 100V200C0 255.228 44.772 300 100 300C155.228 300 200 255.228 200 200V100C200 44.772 155.228 0 100 0Z" fill="#444444"/>
  <path d="M100 40C67.909 40 42 65.909 42 98V202C42 234.091 67.909 260 100 260C132.091 260 158 234.091 158 202V98C158 65.909 132.091 40 100 40Z" fill="#777777"/>
  <circle cx="70" cy="120" r="15" fill="white"/>
  <circle cx="130" cy="120" r="15" fill="white"/>
  <circle cx="70" cy="120" r="8" fill="#444444"/>
  <circle cx="130" cy="120" r="8" fill="#444444"/>
  <path d="M80 180C80 180 90 190 100 190C110 190 120 180 120 180" stroke="white" stroke-width="6" stroke-linecap="round"/>
</svg>