<?xml version="1.0" encoding="UTF-8" standalone="no"?>
<svg width="150" height="40" viewBox="0 0 150 40" fill="none" xmlns="http://www.w3.org/2000/svg">
  <path d="M20 0C8.954 0 0 8.954 0 20C0 31.046 8.954 40 20 40C31.046 40 40 31.046 40 20C40 8.954 31.046 0 20 0ZM20 36C11.163 36 4 28.837 4 20C4 11.163 11.163 4 20 4C28.837 4 36 11.163 36 20C36 28.837 28.837 36 20 36Z" fill="#333333"/>
  <path d="M20 8C13.373 8 8 13.373 8 20C8 26.627 13.373 32 20 32C26.627 32 32 26.627 32 20C32 13.373 26.627 8 20 8ZM20 28C15.582 28 12 24.418 12 20C12 15.582 15.582 12 20 12C24.418 12 28 15.582 28 20C28 24.418 24.418 28 20 28Z" fill="#555555"/>
  <path d="M20 16C17.791 16 16 17.791 16 20C16 22.209 17.791 24 20 24C22.209 24 24 22.209 24 20C24 17.791 22.209 16 20 16Z" fill="#333333"/>
  <path d="M50 10H54V30H50V10Z" fill="#333333"/>
  <path d="M56 10H60V26H70V30H56V10Z" fill="#333333"/>
  <path d="M72 10H76V30H72V10Z" fill="#333333"/>
  <path d="M78 10H92V14H82V18H90V22H82V26H92V30H78V10Z" fill="#333333"/>
  <path d="M94 10H98V26H108V30H94V10Z" fill="#333333"/>
  <path d="M110 10H124V14H114V18H122V22H114V26H124V30H110V10Z" fill="#333333"/>
  <path d="M126 10H130V26H140V30H126V10Z" fill="#333333"/>
</svg>