<?xml version="1.0" encoding="UTF-8" standalone="no"?>
<svg width="80" height="80" viewBox="0 0 80 80" fill="none" xmlns="http://www.w3.org/2000/svg">
  <rect width="80" height="80" rx="40" fill="#f2f2f2"/>
  <path d="M40 20C28.954 20 20 28.954 20 40C20 51.046 28.954 60 40 60C51.046 60 60 51.046 60 40C60 28.954 51.046 20 40 20Z" fill="#777777"/>
  <path d="M40 25C31.716 25 25 31.716 25 40C25 48.284 31.716 55 40 55C48.284 55 55 48.284 55 40C55 31.716 48.284 25 40 25Z" fill="#f2f2f2"/>
  <path d="M40 30C34.477 30 30 34.477 30 40C30 45.523 34.477 50 40 50C45.523 50 50 45.523 50 40C50 34.477 45.523 30 40 30Z" fill="#444444"/>
  <path d="M40 35C37.239 35 35 37.239 35 40C35 42.761 37.239 45 40 45C42.761 45 45 42.761 45 40C45 37.239 42.761 35 40 35Z" fill="#f2f2f2"/>
</svg>