<?xml version="1.0" encoding="UTF-8" standalone="no"?>
<svg width="300" height="300" viewBox="0 0 300 300" fill="none" xmlns="http://www.w3.org/2000/svg">
  <path d="M150 20C92.772 20 46 66.772 46 124V176C46 233.228 92.772 280 150 280C207.228 280 254 233.228 254 176V124C254 66.772 207.228 20 150 20Z" fill="#333333"/>
  <path d="M150 50C104.772 50 68 86.772 68 132V168C68 213.228 104.772 250 150 250C195.228 250 232 213.228 232 168V132C232 86.772 195.228 50 150 50Z" fill="#555555"/>
  <circle cx="110" cy="130" r="20" fill="white"/>
  <circle cx="190" cy="130" r="20" fill="white"/>
  <circle cx="110" cy="130" r="10" fill="#333333"/>
  <circle cx="190" cy="130" r="10" fill="#333333"/>
  <path d="M120 190C120 190 135 210 150 210C165 210 180 190 180 190" stroke="white" stroke-width="8" stroke-linecap="round"/>
  <path d="M150 50V20M100 60L80 40M200 60L220 40" stroke="#333333" stroke-width="8" stroke-linecap="round"/>
</svg>