<?xml version="1.0" encoding="UTF-8" standalone="no"?>
<svg xmlns="http://www.w3.org/2000/svg" width="300" height="400" viewBox="0 0 300 400" fill="none">
  <path d="M150 50C110 50 80 80 80 120C80 160 110 190 150 190C190 190 220 160 220 120C220 80 190 50 150 50Z" fill="#58CC02"/>
  <path d="M110 120C110 100 125 85 145 85C165 85 180 100 180 120C180 140 165 155 145 155C125 155 110 140 110 120Z" fill="white"/>
  <path d="M130 120C130 112 137 105 145 105C153 105 160 112 160 120C160 128 153 135 145 135C137 135 130 128 130 120Z" fill="black"/>
  <path d="M190 120C190 100 175 85 155 85C135 85 120 100 120 120C120 140 135 155 155 155C175 155 190 140 190 120Z" fill="white"/>
  <path d="M170 120C170 112 163 105 155 105C147 105 140 112 140 120C140 128 147 135 155 135C163 135 170 128 170 120Z" fill="black"/>
  <path d="M150 190C130 190 112 183 100 170L85 190H55V135H100C100 135 102 150 115 150C128 150 130 135 130 135H170C170 135 172 150 185 150C198 150 200 135 200 135H245V190H215L200 170C188 183 170 190 150 190Z" fill="#8EE000"/>
  <path d="M150 190C130 190 112 183 100 170L85 190H55V135H100C100 135 102 150 115 150C128 150 130 135 130 135H170C170 135 172 150 185 150C198 150 200 135 200 135H245V190H215L200 170C188 183 170 190 150 190Z" fill="#8EE000"/>
  <path d="M100 190L85 210H55V250H85L100 270C112 283 130 290 150 290C170 290 188 283 200 270L215 250H245V210H215L200 190C188 177 170 170 150 170C130 170 112 177 100 190Z" fill="#58CC02"/>
  <path d="M100 190L85 210H55V250H85L100 270C112 283 130 290 150 290C170 290 188 283 200 270L215 250H245V210H215L200 190C188 177 170 170 150 170C130 170 112 177 100 190Z" fill="#58CC02"/>
  <path d="M150 290C130 290 112 297 100 310L85 330H55V370H85L100 350C112 337 130 330 150 330C170 330 188 337 200 350L215 370H245V330H215L200 310C188 297 170 290 150 290Z" fill="#89E219"/>
  <path d="M150 290C130 290 112 297 100 310L85 330H55V370H85L100 350C112 337 130 330 150 330C170 330 188 337 200 350L215 370H245V330H215L200 310C188 297 170 290 150 290Z" fill="#89E219"/>
  <path d="M70 250C80 250 90 240 90 230C90 220 80 210 70 210C60 210 50 220 50 230C50 240 60 250 70 250Z" fill="white"/>
  <path d="M230 250C240 250 250 240 250 230C250 220 240 210 230 210C220 210 210 220 210 230C210 240 220 250 230 250Z" fill="white"/>
  <path d="M70 240C75 240 80 235 80 230C80 225 75 220 70 220C65 220 60 225 60 230C60 235 65 240 70 240Z" fill="black"/>
  <path d="M230 240C235 240 240 235 240 230C240 225 235 220 230 220C225 220 220 225 220 230C220 235 225 240 230 240Z" fill="black"/>
</svg>