<?xml version="1.0" encoding="UTF-8" standalone="no"?>
<svg xmlns="http://www.w3.org/2000/svg" width="190" height="35" viewBox="0 0 190 35" fill="none">
  <path d="M24.4946 0C16.1932 0 9.46045 6.73275 9.46045 15.0342C9.46045 23.3356 16.1932 30.0684 24.4946 30.0684C32.796 30.0684 39.5288 23.3356 39.5288 15.0342C39.5288 6.73275 32.796 0 24.4946 0Z" fill="#58CC02"/>
  <path d="M24.4946 0C16.1932 0 9.46045 6.73275 9.46045 15.0342C9.46045 23.3356 16.1932 30.0684 24.4946 30.0684C32.796 30.0684 39.5288 23.3356 39.5288 15.0342C39.5288 6.73275 32.796 0 24.4946 0Z" fill="#58CC02"/>
  <path d="M14.8647 15.0342C14.8647 11.6712 17.5897 8.94617 20.9527 8.94617C24.3157 8.94617 27.0407 11.6712 27.0407 15.0342C27.0407 18.3972 24.3157 21.1222 20.9527 21.1222C17.5897 21.1222 14.8647 18.3972 14.8647 15.0342Z" fill="white"/>
  <path d="M18.4066 15.0342C18.4066 13.6227 19.5412 12.4881 20.9527 12.4881C22.3642 12.4881 23.4988 13.6227 23.4988 15.0342C23.4988 16.4457 22.3642 17.5803 20.9527 17.5803C19.5412 17.5803 18.4066 16.4457 18.4066 15.0342Z" fill="black"/>
  <path d="M34.1245 15.0342C34.1245 11.6712 31.3995 8.94617 28.0365 8.94617C24.6735 8.94617 21.9485 11.6712 21.9485 15.0342C21.9485 18.3972 24.6735 21.1222 28.0365 21.1222C31.3995 21.1222 34.1245 18.3972 34.1245 15.0342Z" fill="white"/>
  <path d="M30.5826 15.0342C30.5826 13.6227 29.448 12.4881 28.0365 12.4881C26.625 12.4881 25.4904 13.6227 25.4904 15.0342C25.4904 16.4457 26.625 17.5803 28.0365 17.5803C29.448 17.5803 30.5826 16.4457 30.5826 15.0342Z" fill="black"/>
  <path d="M24.4946 30.0684C20.9527 30.0684 17.7084 28.8151 15.1623 26.7084L12.6162 30.0684H7.52417V21.1222H15.1623C15.1623 21.1222 15.4446 23.6684 17.9907 23.6684C20.5369 23.6684 20.9527 21.1222 20.9527 21.1222H28.0365C28.0365 21.1222 28.4523 23.6684 30.9984 23.6684C33.5446 23.6684 33.8269 21.1222 33.8269 21.1222H41.4651V30.0684H36.3731L33.8269 26.7084C31.2808 28.8151 28.0365 30.0684 24.4946 30.0684Z" fill="#8EE000"/>
  <path d="M24.4946 30.0684C20.9527 30.0684 17.7084 28.8151 15.1623 26.7084L12.6162 30.0684H7.52417V21.1222H15.1623C15.1623 21.1222 15.4446 23.6684 17.9907 23.6684C20.5369 23.6684 20.9527 21.1222 20.9527 21.1222H28.0365C28.0365 21.1222 28.4523 23.6684 30.9984 23.6684C33.5446 23.6684 33.8269 21.1222 33.8269 21.1222H41.4651V30.0684H36.3731L33.8269 26.7084C31.2808 28.8151 28.0365 30.0684 24.4946 30.0684Z" fill="#8EE000"/>
  <path d="M56.5 8.5H61.5V25H56.5V8.5Z" fill="#4B4B4B"/>
  <path d="M72.5 8.5C77.5 8.5 81 12 81 16.75C81 21.5 77.5 25 72.5 25H65V8.5H72.5ZM72 20.5C74 20.5 75.5 19 75.5 16.75C75.5 14.5 74 13 72 13H70V20.5H72Z" fill="#4B4B4B"/>
  <path d="M91 8.5C96 8.5 99.5 12 99.5 16.75C99.5 21.5 96 25 91 25H83.5V8.5H91ZM90.5 20.5C92.5 20.5 94 19 94 16.75C94 14.5 92.5 13 90.5 13H88.5V20.5H90.5Z" fill="#4B4B4B"/>
  <path d="M101.5 16.75C101.5 12 105 8.5 110 8.5C115 8.5 118.5 12 118.5 16.75C118.5 21.5 115 25 110 25C105 25 101.5 21.5 101.5 16.75ZM113 16.75C113 14.5 111.75 13 110 13C108.25 13 107 14.5 107 16.75C107 19 108.25 20.5 110 20.5C111.75 20.5 113 19 113 16.75Z" fill="#4B4B4B"/>
  <path d="M120 8.5H125V20.5H132V25H120V8.5Z" fill="#4B4B4B"/>
  <path d="M133 8.5H138V25H133V8.5Z" fill="#4B4B4B"/>
  <path d="M148.5 25.5C143.5 25.5 140 22 140 17C140 12 143.5 8.5 148.5 8.5C152 8.5 155 10.5 156 13.5H150.5C150 12.75 149.25 12.5 148.5 12.5C146.75 12.5 145.5 14.25 145.5 17C145.5 19.75 146.75 21.5 148.5 21.5C149.25 21.5 150 21.25 150.5 20.5H156C155 23.5 152 25.5 148.5 25.5Z" fill="#4B4B4B"/>
  <path d="M166.5 25.5C161.5 25.5 158 22 158 17C158 12 161.5 8.5 166.5 8.5C171.5 8.5 175 12 175 17C175 22 171.5 25.5 166.5 25.5ZM166.5 21.5C168.25 21.5 169.5 19.75 169.5 17C169.5 14.25 168.25 12.5 166.5 12.5C164.75 12.5 163.5 14.25 163.5 17C163.5 19.75 164.75 21.5 166.5 21.5Z" fill="#4B4B4B"/>
  <path d="M176.5 8.5H181.5V20.5H188.5V25H176.5V8.5Z" fill="#4B4B4B"/>
</svg>