<?xml version="1.0" encoding="UTF-8" standalone="no"?>
<svg width="20" height="20" viewBox="0 0 20 20" fill="none" xmlns="http://www.w3.org/2000/svg">
  <path d="M10 1.802C12.669 1.802 12.987 1.812 14.041 1.861C15.017 1.906 15.545 2.066 15.897 2.202C16.368 2.381 16.7 2.598 17.047 2.945C17.394 3.292 17.612 3.624 17.791 4.095C17.927 4.447 18.087 4.976 18.132 5.952C18.181 7.006 18.191 7.324 18.191 9.993C18.191 12.662 18.181 12.98 18.132 14.034C18.087 15.01 17.927 15.538 17.791 15.89C17.612 16.361 17.394 16.693 17.047 17.04C16.7 17.387 16.368 17.605 15.897 17.784C15.545 17.92 15.017 18.08 14.041 18.125C12.987 18.174 12.669 18.184 10 18.184C7.331 18.184 7.013 18.174 5.959 18.125C4.983 18.08 4.455 17.92 4.103 17.784C3.632 17.605 3.3 17.387 2.953 17.04C2.606 16.693 2.388 16.361 2.209 15.89C2.073 15.538 1.913 15.01 1.868 14.034C1.819 12.98 1.809 12.662 1.809 9.993C1.809 7.324 1.819 7.006 1.868 5.952C1.913 4.976 2.073 4.447 2.209 4.095C2.388 3.624 2.606 3.292 2.953 2.945C3.3 2.598 3.632 2.381 4.103 2.202C4.455 2.066 4.983 1.906 5.959 1.861C7.013 1.812 7.331 1.802 10 1.802ZM10 0C7.284 0 6.944 0.012 5.877 0.06C4.813 0.109 4.086 0.278 3.45 0.525C2.793 0.779 2.234 1.123 1.678 1.678C1.123 2.234 0.779 2.793 0.525 3.45C0.278 4.086 0.109 4.813 0.06 5.877C0.012 6.944 0 7.284 0 10C0 12.716 0.012 13.056 0.06 14.123C0.109 15.187 0.278 15.914 0.525 16.55C0.779 17.207 1.123 17.766 1.678 18.322C2.234 18.877 2.793 19.221 3.45 19.475C4.086 19.722 4.813 19.891 5.877 19.94C6.944 19.988 7.284 20 10 20C12.716 20 13.056 19.988 14.123 19.94C15.187 19.891 15.914 19.722 16.55 19.475C17.207 19.221 17.766 18.877 18.322 18.322C18.877 17.766 19.221 17.207 19.475 16.55C19.722 15.914 19.891 15.187 19.94 14.123C19.988 13.056 20 12.716 20 10C20 7.284 19.988 6.944 19.94 5.877C19.891 4.813 19.722 4.086 19.475 3.45C19.221 2.793 18.877 2.234 18.322 1.678C17.766 1.123 17.207 0.779 16.55 0.525C15.914 0.278 15.187 0.109 14.123 0.06C13.056 0.012 12.716 0 10 0Z" fill="#444444"/>
  <path d="M10 4.865C7.165 4.865 4.865 7.165 4.865 10C4.865 12.835 7.165 15.135 10 15.135C12.835 15.135 15.135 12.835 15.135 10C15.135 7.165 12.835 4.865 10 4.865ZM10 13.333C8.159 13.333 6.667 11.841 6.667 10C6.667 8.159 8.159 6.667 10 6.667C11.841 6.667 13.333 8.159 13.333 10C13.333 11.841 11.841 13.333 10 13.333Z" fill="#444444"/>
  <path d="M16.538 4.662C16.538 5.325 16 5.863 15.338 5.863C14.675 5.863 14.137 5.325 14.137 4.662C14.137 4 14.675 3.462 15.338 3.462C16 3.462 16.538 4 16.538 4.662Z" fill="#444444"/>
</svg>