<?xml version="1.0" encoding="UTF-8" standalone="no"?>
<svg width="20" height="20" viewBox="0 0 20 20" fill="none" xmlns="http://www.w3.org/2000/svg">
  <path d="M20 3.799C19.265 4.125 18.473 4.341 17.642 4.443C18.49 3.927 19.141 3.115 19.447 2.139C18.653 2.617 17.777 2.966 16.842 3.155C16.093 2.347 15.027 1.833 13.847 1.833C11.581 1.833 9.743 3.671 9.743 5.937C9.743 6.258 9.779 6.571 9.849 6.871C6.439 6.704 3.417 5.079 1.392 2.598C1.039 3.205 0.837 3.927 0.837 4.7C0.837 6.156 1.562 7.446 2.662 8.192C1.99 8.172 1.357 7.988 0.804 7.691C0.804 7.708 0.804 7.725 0.804 7.742C0.804 9.735 2.218 11.391 4.095 11.771C3.751 11.864 3.388 11.913 3.014 11.913C2.749 11.913 2.492 11.888 2.242 11.841C2.764 13.468 4.279 14.652 6.075 14.685C4.67 15.785 2.901 16.435 0.979 16.435C0.648 16.435 0.321 16.416 0 16.379C1.816 17.541 3.973 18.213 6.29 18.213C13.837 18.213 17.965 11.98 17.965 6.562C17.965 6.385 17.961 6.209 17.953 6.034C18.756 5.448 19.449 4.718 20 3.883V3.799Z" fill="#444444"/>
</svg>